<svg xmlns="http://www.w3.org/2000/svg" width="14" height="20" viewBox="0 0 14 20">
    <g fill="none" fill-rule="evenodd">
        <g fill="#58585B">
            <g>
                <g>
                    <g>
                        <path d="M10 0c3.866 0 7 3.254 7 7.268 0 .156-.006.31-.015.462h.001l-.007.091v.008c-.31 4.72-4.551 9.108-7.256 12.171-2.306-2.918-5.566-7.096-6.478-10.822C3.085 8.57 3 7.93 3 7.268 3 3.254 6.134 0 10 0m0 3.565c1.968 0 3.565 1.658 3.565 3.703 0 2.044-1.597 3.702-3.565 3.702-1.97 0-3.565-1.658-3.565-3.702 0-2.045 1.596-3.703 3.565-3.703" transform="translate(-123.000000, -555.000000) translate(-1.000000, 0.000000) translate(0.000000, 428.000000) translate(121.000000, 127.000000)"/>
                    </g>
                </g>
            </g>
        </g>
    </g>
</svg>
