<svg xmlns="http://www.w3.org/2000/svg" xmlns:xlink="http://www.w3.org/1999/xlink" width="20" height="20" viewBox="0 0 20 20">
    <defs>
        <path id="l5ywy1fkya" d="M0 0.523L4.428 0.523 4.428 5.083 0 5.083z"/>
        <path id="wjhg0nx1mc" d="M0.39 0.246L4.242 0.246 4.242 5 0.39 5z"/>
    </defs>
    <g fill="none" fill-rule="evenodd">
        <g>
            <g>
                <g>
                    <g>
                        <g>
                            <g transform="translate(-120.000000, -691.000000) translate(-1.000000, 0.000000) translate(0.000000, 428.000000) translate(121.000000, 127.000000) translate(0.000000, 136.000000) translate(0.000000, 4.919000)">
                                <mask id="bb06my89gb" fill="#fff">
                                    <use xlink:href="#l5ywy1fkya"/>
                                </mask>
                                <path fill="#58585B" d="M4.428 1.034C3.406.9 2.385.73 1.363.524.553 1.863.065 3.418 0 5.083h3.89c.029-1.446.219-2.817.538-4.05" mask="url(#bb06my89gb)"/>
                            </g>
                            <path fill="#58585B" d="M17.747 5.446c-1.02.22-2.04.397-3.06.53.316 1.229.503 2.59.532 4.027h3.89c-.065-1.663-.554-3.217-1.362-4.557M14.48 5.251c.941-.12 1.883-.279 2.824-.476-.299-.412-.63-.799-.989-1.159-1.147-1.147-2.585-2.005-4.192-2.452.563.517 1.07 1.198 1.503 2.011.33.62.617 1.317.854 2.076M1.81 4.769c.942.184 1.883.337 2.826.457.236-.75.52-1.437.846-2.051.433-.812.94-1.494 1.503-2.01-1.607.447-3.045 1.304-4.192 2.452-.357.356-.687.742-.984 1.152M4.638 15.534c-.927.136-1.855.307-2.782.514.285.387.598.752.938 1.09 1.147 1.147 2.584 2.003 4.192 2.451-.563-.515-1.07-1.197-1.503-2.01-.325-.61-.61-1.297-.845-2.045M17.258 16.041c-.927-.218-1.854-.395-2.78-.53-.237.756-.523 1.451-.852 2.068-.433.813-.94 1.494-1.503 2.01 1.608-.447 3.045-1.304 4.192-2.45.341-.342.657-.709.943-1.098M14.685 14.785c1.007.15 2.014.348 3.021.593.833-1.356 1.337-2.935 1.402-4.626h-3.89c-.028 1.438-.217 2.804-.533 4.033M1.405 15.381c1.007-.23 2.016-.423 3.024-.572-.319-1.237-.51-2.61-.539-4.057H0c.065 1.693.571 3.274 1.405 4.63M9.242 5.552V.835c-1.191.151-2.28 1.151-3.1 2.692-.286.537-.538 1.136-.751 1.789 1.285.14 2.568.22 3.85.236M9.242 10.002V6.3c-1.355-.017-2.71-.103-4.065-.255-.318 1.196-.507 2.537-.536 3.958h4.6zM9.242 14.418v-3.666H4.64c.028 1.42.218 2.758.535 3.953 1.354-.173 2.71-.269 4.066-.287" transform="translate(-120.000000, -691.000000) translate(-1.000000, 0.000000) translate(0.000000, 428.000000) translate(121.000000, 127.000000) translate(0.000000, 136.000000)"/>
                            <g transform="translate(-120.000000, -691.000000) translate(-1.000000, 0.000000) translate(0.000000, 428.000000) translate(121.000000, 127.000000) translate(0.000000, 136.000000) translate(5.000000, 14.919000)">
                                <mask id="31e1fqo1md" fill="#fff">
                                    <use xlink:href="#wjhg0nx1mc"/>
                                </mask>
                                <path fill="#58585B" d="M4.242 5V.246C2.959.263 1.675.354.39.514c.212.654.465 1.257.752 1.795C1.962 3.85 3.05 4.85 4.242 5" mask="url(#31e1fqo1md)"/>
                            </g>
                            <path fill="#58585B" d="M9.992 15.164V19.9c1.142-.2 2.183-1.184 2.975-2.672.29-.544.546-1.154.76-1.817-1.245-.154-2.49-.235-3.735-.246M9.992 10.752v3.665c1.316.012 2.632.1 3.948.266.313-1.19.5-2.52.529-3.93H9.992zM9.992 6.3v3.702h4.477c-.03-1.41-.217-2.743-.53-3.934-1.316.146-2.632.222-3.947.232M9.992.855v4.698c1.245-.01 2.489-.08 3.733-.213-.213-.662-.468-1.27-.758-1.813-.792-1.487-1.833-2.471-2.975-2.672" transform="translate(-120.000000, -691.000000) translate(-1.000000, 0.000000) translate(0.000000, 428.000000) translate(121.000000, 127.000000) translate(0.000000, 136.000000)"/>
                        </g>
                    </g>
                </g>
            </g>
        </g>
    </g>
</svg>
