<svg xmlns="http://www.w3.org/2000/svg" xmlns:xlink="http://www.w3.org/1999/xlink" width="49" height="49" viewBox="0 0 49 49">
    <defs>
        <path id="gcc73ps5xa" d="M0 0L49 0 49 49 0 49z"/>
    </defs>
    <g fill="none" fill-rule="evenodd">
        <g>
            <g>
                <g>
                    <g transform="translate(-50.000000, -332.000000) translate(50.000000, 197.000000) translate(24.500000, 159.500000) scale(-1, 1) translate(-24.500000, -159.500000) translate(0.000000, 135.000000)">
                        <mask id="dzbo5z14db" fill="#fff">
                            <use xlink:href="#gcc73ps5xa"/>
                        </mask>
                        <path fill="#FFF" d="M49 24.5C49 38.031 38.03 49 24.5 49S0 38.031 0 24.5C0 10.97 10.97 0 24.5 0S49 10.97 49 24.5" mask="url(#dzbo5z14db)"/>
                    </g>
                    <path fill="#8495AC" d="M25.989 24.512l-4.89-6.083c-.145-.182-.297-.36-.436-.547-.473-.636-.415-1.35.145-1.821.568-.478 1.333-.402 1.85.232.924 1.128 1.82 2.278 2.728 3.418 1.029 1.293 2.06 2.583 3.083 3.88.55.699.547 1.189-.028 1.88-1.997 2.41-4 4.814-6.008 7.215-.54.645-1.27.739-1.847.263-.595-.49-.62-1.222-.051-1.904 1.803-2.164 3.61-4.325 5.454-6.533" transform="translate(-50.000000, -332.000000) translate(50.000000, 197.000000) translate(24.500000, 159.500000) scale(-1, 1) translate(-24.500000, -159.500000) translate(0.000000, 135.000000)"/>
                </g>
            </g>
        </g>
    </g>
</svg>
