<svg width="22" height="18" viewBox="0 0 22 18" fill="none" xmlns="http://www.w3.org/2000/svg">
<path d="M0.785714 3.30612H21.2143C21.6071 3.30612 22 2.98469 22 2.57143V0.734694C22 0.367347 21.6071 0 21.2143 0H0.785714C0.34375 0 0 0.367347 0 0.734694V2.57143C0 2.98469 0.34375 3.30612 0.785714 3.30612ZM0.785714 10.6531H21.2143C21.6071 10.6531 22 10.3316 22 9.91837V8.08163C22 7.71429 21.6071 7.34694 21.2143 7.34694H0.785714C0.34375 7.34694 0 7.71429 0 8.08163V9.91837C0 10.3316 0.34375 10.6531 0.785714 10.6531ZM0.785714 18H21.2143C21.6071 18 22 17.6786 22 17.2653V15.4286C22 15.0612 21.6071 14.6939 21.2143 14.6939H0.785714C0.34375 14.6939 0 15.0612 0 15.4286V17.2653C0 17.6786 0.34375 18 0.785714 18Z" fill="white"/>
</svg>
