<svg xmlns="http://www.w3.org/2000/svg" xmlns:xlink="http://www.w3.org/1999/xlink" width="32" height="43" viewBox="0 0 32 43">
    <defs>
        <path id="v68umt7nja" d="M0 0L31.124 0 31.124 42.726 0 42.726z"/>
    </defs>
    <g fill="none" fill-rule="evenodd">
        <g>
            <g>
                <g>
                    <g transform="translate(-854.000000, -617.000000) translate(529.000000, 464.000000) translate(297.000000, 129.000000) translate(28.000000, 24.000000)">
                        <mask id="y8v0tngt3b" fill="#fff">
                            <use xlink:href="#v68umt7nja"/>
                        </mask>
                        <path fill="#FEFEFE" d="M11.885 14.416c0 1.147.013 2.295-.007 3.442-.006.35.114.45.454.443.808-.021 1.616-.019 2.424-.005 1.31.022 2.615-.048 3.907-.275 1.89-.333 3.086-1.43 3.35-3.144.258-1.658-.453-3.213-2.08-3.835-1.013-.388-2.087-.448-3.153-.476-1.49-.04-2.982-.007-4.472-.024-.333-.003-.432.11-.429.431.015 1.148.006 2.295.006 3.443zm-.014 12.832h.012c0 .897-.011 1.795.005 2.693.008.521-.038 1.047.072 1.563.105.494.322.666.819.709 1.204.103 2.412.076 3.616.05 1-.024 1.997-.087 2.975-.355 3.123-.855 4.156-4.47 2.643-6.822-.705-1.098-1.84-1.545-3.072-1.773-.727-.134-1.47-.143-2.208-.18-1.536-.073-3.073-.013-4.609-.035-.182-.002-.258.065-.257.264.009 1.295.004 2.59.004 3.886zM9.565 42.726c0-1.591 0-3.182-.003-4.774 0-.457-.003-.459-.45-.459H.502c-.49 0-.497-.007-.497-.492-.001-1.193-.002-2.387 0-3.582.001-.438.027-.461.465-.464.625-.002 1.25.001 1.876-.054.89-.08 1.337-.514 1.417-1.404.048-.533.051-1.067.051-1.6.001-5.718.001-11.435-.002-17.153 0-.499-.025-.999-.056-1.498-.049-.786-.582-1.3-1.377-1.382-.66-.066-1.32-.071-1.978-.056-.298.006-.403-.101-.4-.395.009-1.25.011-2.5-.002-3.75-.003-.323.128-.402.43-.402 2.88.008 5.762.006 8.642.005.488 0 .49 0 .49-.49.001-1.443.008-2.885-.006-4.33-.003-.342.107-.45.454-.445C11.25.02 12.49.021 13.732 0c.358-.005.441.122.438.453-.014 1.467.003 2.933-.013 4.4-.003.334.107.43.43.42.65-.022 1.298-.006 1.947-.007.458 0 .46-.002.46-.445V.559c0-.55 0-.552.566-.552h3.52c.515.001.517.001.517.504.002 1.512.009 3.023-.007 4.536-.004.338.122.456.44.491 2.11.242 4.02.963 5.625 2.389.77.683 1.342 1.517 1.732 2.46.879 2.128.758 4.22-.36 6.233-.808 1.457-2.031 2.487-3.515 3.225-.432.215-.884.383-1.323.639.546.177 1.093.344 1.635.53 1.202.41 2.29 1.026 3.173 1.942 1.127 1.168 1.829 2.559 2.043 4.182.42 3.184-.745 5.729-3.19 7.71-1.68 1.362-3.675 2.016-5.798 2.293-.343.044-.466.152-.463.505.015 1.693.003 3.387.002 5.08h-4.578c-.006-.148-.019-.294-.02-.441-.001-1.455-.011-2.91.007-4.364.005-.354-.11-.45-.449-.435-.58.025-1.16.004-1.74.007-.718.004-.644-.076-.646.633-.009 1.533-.015 3.067-.021 4.6H9.565z" mask="url(#y8v0tngt3b)"/>
                    </g>
                </g>
            </g>
        </g>
    </g>
</svg>
