<svg xmlns="http://www.w3.org/2000/svg" xmlns:xlink="http://www.w3.org/1999/xlink" width="305" height="40" viewBox="0 0 305 40">
    <defs>
        <path id="hkx3wtcbka" d="M0 0.315L39.313 0.315 39.313 39.628 0 39.628z"/>
        <path id="lf666sfd8c" d="M0.742 0.368L10.675 0.368 10.675 13.954 0.742 13.954z"/>
        <path id="51u8vrcfte" d="M0 40.551L304.711 40.551 304.711 0.997 0 0.997z"/>
    </defs>
    <g fill="none" fill-rule="evenodd">
        <g>
            <g transform="translate(-40.000000, -40.000000) translate(40.000000, 39.000000)">
                <path fill="#FEFEFE" d="M18.394 10.194c0-5.08-4.117-9.197-9.197-9.197C4.117.997 0 5.115 0 10.194c0 5.08 4.118 9.197 9.197 9.197 5.08 0 9.197-4.118 9.197-9.197"/>
                <g transform="translate(0.000000, 0.681864)">
                    <mask id="dei0dnziyb" fill="#fff">
                        <use xlink:href="#hkx3wtcbka"/>
                    </mask>
                    <path fill="#FEFEFE" d="M30.115.315c-5.079 0-9.196 4.117-9.196 9.198 0 6.473-5.248 11.721-11.722 11.721C4.117 21.234 0 25.352 0 30.43c0 5.08 4.118 9.198 9.197 9.198 5.08 0 9.197-4.118 9.197-9.198 0-6.473 5.248-11.72 11.721-11.72 5.08 0 9.198-4.119 9.198-9.197 0-5.08-4.118-9.198-9.198-9.198" mask="url(#dei0dnziyb)"/>
                </g>
                <path fill="#FEFEFE" d="M219.435 31.567h3.758c3.974 0 5.692-1.157 5.692-4.272 0-3.003-1.61-4.133-5.584-4.133h-3.866v8.405zm3.866-9.617c4.752 0 7.008 1.654 7.008 5.345 0 3.915-2.228 5.484-7.14 5.484h-3.734v7.469h-1.396V21.95h5.262zM240.028 35.756v-3.362c-.724.827-2.415 1.075-4 1.433-1.826.441-3.49 1.047-3.49 3.004 0 1.543 1.02 2.59 2.953 2.59 2.336 0 3.92-1.268 4.537-3.665m-8.887 1.102c0-2.727 2.256-3.472 4.699-4.023 1.88-.44 3.624-.717 4.188-1.654v-.137c0-1.957-1.02-2.95-3.383-2.95-2.148 0-3.757.8-3.784 3.032v.11h-1.37c.027-2.92 2.201-4.27 5.154-4.27 3.116 0 4.7 1.46 4.7 4.38v7.69l.026 1.212h-1.369v-2.535c-1.074 2.205-2.953 2.81-4.645 2.81-2.658 0-4.216-1.515-4.216-3.665M245.802 30.107c.484-1.874 1.584-2.894 3.92-2.894h.752v1.268h-1.02c-2.845 0-3.57 1.818-3.57 5.319v6.448h-1.345V27.24h1.263v2.866zM256.863 40.248c-2.12-.027-2.819-.965-2.819-2.948v-8.902h-2.47V27.24h2.47v-2.838l1.289-1.02v3.858h3.22v1.157h-3.248v8.736c0 1.378.43 1.929 1.746 1.957h1.476v1.157h-1.664zM262.26 30.713c.644-2.37 2.175-3.748 4.564-3.748 2.658 0 4.377 1.791 4.377 4.989v8.294h-1.342v-8.185c0-2.562-1.264-3.885-3.25-3.885-2.927 0-4.294 2.48-4.294 6.862v5.208h-1.344V27.24h1.288v3.472zM274.826 33.055h9.102c-.054-3.114-1.69-4.933-4.322-4.933-2.686 0-4.565 1.957-4.78 4.933m-1.315.717c0-3.996 2.497-6.807 6.121-6.807 3.49 0 5.691 2.536 5.691 6.67v.496h-10.497c.08 3.058 1.853 5.236 4.834 5.236 2.738 0 4.08-1.434 4.672-3.06l1.126.413c-.697 2.013-2.47 3.804-5.798 3.804-3.84 0-6.149-2.811-6.149-6.752M289.326 30.107c.483-1.874 1.584-2.894 3.92-2.894h.752v1.268h-1.022c-2.845 0-3.57 1.818-3.57 5.319v6.448h-1.343V27.24h1.263v2.866z"/>
                <g transform="translate(294.035948, 26.596897)">
                    <mask id="uz1fpg2tcd" fill="#fff">
                        <use xlink:href="#lf666sfd8c"/>
                    </mask>
                    <path fill="#FEFEFE" d="M.742 11.502l1.02-.717c1.18 1.516 2.953 2.066 4.456 2.066 1.96 0 3.194-.991 3.194-2.59 0-1.653-1.664-2.15-3.892-2.7-2.578-.606-4.27-1.24-4.27-3.61 0-2.067 1.8-3.583 4.243-3.583 1.987 0 3.624.827 4.94 2.26l-.967.771c-1.02-1.24-2.496-1.928-4-1.928-1.798 0-2.953.965-2.953 2.425 0 1.625 1.315 1.956 3.625 2.508 2.227.523 4.537 1.322 4.537 3.72 0 2.315-1.773 3.83-4.483 3.83-2.122 0-4.243-.799-5.45-2.452" mask="url(#uz1fpg2tcd)"/>
                </g>
                <path fill="#FEFEFE" d="M220.326 3.385c.344 0 .548-.176.548-.481s-.204-.468-.548-.468h-.521v.95h.521zm.436.252l.516.766h-.436l-.417-.692h-.62v.692h-.379V2.11h.9c.582 0 .905.285.905.788 0 .36-.165.617-.47.739zm1.375-.32c0-1.037-.806-1.893-1.858-1.893-1.056 0-1.864.869-1.864 1.908 0 1.037.8 1.893 1.851 1.893 1.057 0 1.871-.869 1.871-1.907zm.377 0c0 1.257-.985 2.315-2.248 2.315-1.255 0-2.227-1.046-2.227-2.3 0-1.256.978-2.315 2.24-2.315 1.256 0 2.235 1.038 2.235 2.3zM115.76 32.45h4.754l-2.336-6.78-2.418 6.78zm.618-10.528h3.894l6.496 18.299h-3.624l-1.692-4.878h-6.685l-1.719 4.878h-3.383l6.713-18.3z"/>
                <mask id="9cbmczo71f" fill="#fff">
                    <use xlink:href="#51u8vrcfte"/>
                </mask>
                <path fill="#FEFEFE" d="M128.219 40.22L131.576 40.22 131.576 21.922 128.219 21.922zM134.099 40.22L137.456 40.22 137.456 21.922 134.099 21.922zM139.978 40.22h3.357V27.213h-3.357V40.22zm-.053-14.909h3.464v-3.334h-3.464v3.334zM153.834 34.847v-1.103c-.727.44-1.907.662-2.953.937-1.29.331-2.258.772-2.258 1.93 0 .881.672 1.488 1.827 1.488 1.585 0 3.302-.827 3.384-3.252m-8.566 1.93c0-2.922 2.12-3.584 4.967-4.218 2.336-.468 3.517-.578 3.599-1.295v-.137c0-.773-.673-1.49-2.391-1.49-1.719 0-2.523.883-2.604 2.04v.193h-3.302c.108-2.948 2.362-4.905 5.933-4.905 3.437 0 5.531 1.543 5.531 5.07v8.186h-3.195v-1.764c-.805 1.35-2.255 2.094-4.136 2.094-2.71 0-4.402-1.515-4.402-3.775M162.64 29.335c.672-1.516 1.908-2.397 3.705-2.397 2.766 0 4.402 1.9 4.402 5.484v7.798h-3.328v-7.606c0-1.819-.67-2.756-2.229-2.756-1.583 0-2.55 1.324-2.55 3.749v6.613h-3.33V27.213h3.33v2.122zM172.388 33.69c0-3.914 2.604-6.725 6.39-6.725 3.06 0 4.886 1.654 5.745 4.162l-3.141.991c-.376-1.433-1.074-2.37-2.632-2.37-1.853 0-3.033 1.627-3.033 3.913v.111c0 2.287 1.074 3.913 2.927 3.913 1.799 0 2.496-.937 2.872-2.508l3.142.937c-.887 2.674-2.766 4.354-5.96 4.354-3.92 0-6.31-2.755-6.31-6.779M188.793 32.477h5.88c-.133-1.902-1.127-2.866-2.846-2.866-1.61 0-2.79 1.046-3.034 2.866m-3.22 1.322c0-4.023 2.63-6.833 6.336-6.833 3.838 0 6.12 2.617 6.12 6.724v1.157h-9.181c.214 1.874 1.396 2.921 3.193 2.921 1.881 0 2.686-.91 3.088-2.011l2.9 1.046c-.886 2.094-2.737 3.638-6.04 3.638-3.947 0-6.417-2.59-6.417-6.642M115.76 11.544h4.754l-2.336-6.779-2.418 6.78zm.618-10.527h3.894l6.496 18.299h-3.624l-1.692-4.878h-6.685l-1.719 4.878h-3.383l6.713-18.3zM137.669 12.867v-.22c0-2.343-1.127-3.83-3.087-3.83-1.825 0-3.088 1.405-3.088 3.967v.193c0 2.563 1.208 3.831 3.088 3.831 1.906 0 3.087-1.599 3.087-3.941m-9.665 0c0-4.133 2.443-6.835 5.666-6.835 1.61 0 2.952.745 3.838 1.957V1.017h3.248v18.299h-3.22v-1.682c-.887 1.213-2.257 1.957-3.894 1.957-3.168 0-5.638-2.48-5.638-6.724M149.458 15.375L152.25 6.309 155.579 6.309 150.961 19.316 147.875 19.316 143.015 6.309 146.451 6.309zM157.809 19.26h3.357V6.255h-3.357V19.26zm-.054-14.908h3.464V1.018h-3.464v3.334zM163.797 16.945l2.63-1.543c.698 1.02 1.879 1.626 3.196 1.626 1.18 0 1.905-.523 1.905-1.377 0-.91-1.397-1.075-3.247-1.488-2.202-.469-4.405-1.351-4.405-3.942 0-2.37 2.203-4.216 5.048-4.216 2.524 0 4.456 1.158 5.691 2.866l-2.631 1.433c-.697-1.074-1.771-1.625-3.033-1.625-1.181 0-1.934.523-1.934 1.294 0 .882.725 1.02 2.927 1.46 2.282.442 4.78 1.323 4.78 3.97 0 2.452-2.203 4.298-5.182 4.298-2.604 0-4.565-1.13-5.745-2.756M186.403 12.922v-.11c0-2.48-1.182-3.969-3.113-3.969-1.96 0-3.142 1.489-3.142 3.97v.109c0 2.425 1.154 3.858 3.088 3.858 1.96 0 3.167-1.433 3.167-3.858m-9.638-.083c0-3.968 2.684-6.778 6.525-6.778 3.811 0 6.497 2.81 6.497 6.778 0 3.913-2.74 6.724-6.578 6.724-3.813 0-6.444-2.756-6.444-6.724M195.99 8.706c.35-1.488 1.29-2.535 3.625-2.535h.268v3.28h-1.315c-2.015 0-2.577.936-2.577 3.196v6.67h-3.33V6.308h3.33v2.397zM203.695 21.63c1.53 0 1.934-.275 2.74-2.425l-4.78-12.896h3.491l2.952 9.066 2.766-9.066h3.329l-4.832 14.219c-1.075 2.866-2.364 4.05-5.425 4.05h-1.555V21.63h1.314zM206.994 32.196c1.972-.49 2.93-1.14 2.93-2.615 0-1.063-.805-1.83-1.82-1.83-1.129 0-1.971.885-1.971 2.066 0 .885.287 1.572.861 2.379m-.46.847c-1.8.472-3.619 1.357-3.619 3.56 0 1.71 1.322 2.99 3.141 2.99 1.607 0 2.986-.767 4.155-2.086l-.21-.276-2.24-2.694c-.48-.55-.883-1.043-1.226-1.494m-4.596 3.62c0-2.559 2.068-3.758 4.137-4.27-.556-.826-.864-1.593-.864-2.557 0-1.632 1.246-2.871 2.892-2.871 1.571 0 2.738 1.062 2.738 2.616 0 1.75-1.11 2.676-3.37 3.245.345.433.747.905 1.207 1.455.076.119 1.035 1.279 2.087 2.539.976-1.298 1.799-2.97 2.527-4.917h.9c-.746 2.103-1.684 4.07-2.871 5.585 1.168 1.416 2.296 2.753 2.296 2.753h-1.148l-1.723-2.085c-1.302 1.416-2.872 2.303-4.73 2.303-2.412 0-4.078-1.595-4.078-3.797M60.232 10.194c0-5.08-4.118-9.197-9.198-9.197-5.079 0-9.197 4.118-9.197 9.197 0 5.08 4.118 9.197 9.197 9.197 5.08 0 9.198-4.118 9.198-9.197M102.068 10.194c0-5.08-4.117-9.197-9.196-9.197-5.08 0-9.197 4.118-9.197 9.197 0 5.08 4.117 9.197 9.197 9.197 5.079 0 9.196-4.118 9.196-9.197M39.313 31.112c0-5.079-4.118-9.196-9.198-9.196-5.078 0-9.197 4.117-9.197 9.196 0 5.08 4.119 9.198 9.197 9.198 5.08 0 9.198-4.118 9.198-9.198M81.15 31.112c0-5.079-4.118-9.196-9.197-9.196-5.08 0-9.197 4.117-9.197 9.196 0 5.08 4.118 9.198 9.197 9.198 5.08 0 9.197-4.118 9.197-9.198" mask="url(#9cbmczo71f)"/>
                <path fill="#FEFEFE" d="M60.232 31.112c0-5.079-4.118-9.196-9.197-9.196-6.474 0-11.722-5.248-11.722-11.722 0-5.08-4.118-9.197-9.197-9.197-5.08 0-9.198 4.118-9.198 9.197 0 5.08 4.118 9.197 9.198 9.197 6.473 0 11.72 5.248 11.72 11.721 0 5.08 4.12 9.198 9.199 9.198s9.197-4.118 9.197-9.198" mask="url(#9cbmczo71f)"/>
                <path fill="#FEFEFE" d="M71.953.997c-5.08 0-9.197 4.117-9.197 9.198 0 6.473-5.248 11.721-11.722 11.721-5.079 0-9.196 4.118-9.196 9.196 0 5.08 4.117 9.198 9.196 9.198 5.08 0 9.197-4.118 9.197-9.198 0-6.473 5.248-11.72 11.722-11.72 5.08 0 9.197-4.12 9.197-9.197 0-5.08-4.118-9.198-9.197-9.198" mask="url(#9cbmczo71f)"/>
                <path fill="#FEFEFE" d="M102.069 31.112c0-5.079-4.118-9.196-9.198-9.196-6.474 0-11.721-5.248-11.721-11.722 0-5.08-4.118-9.197-9.196-9.197-5.08 0-9.198 4.118-9.198 9.197 0 5.08 4.117 9.197 9.198 9.197 6.472 0 11.72 5.248 11.72 11.721 0 5.08 4.119 9.198 9.197 9.198 5.08 0 9.198-4.118 9.198-9.198" mask="url(#9cbmczo71f)"/>
            </g>
        </g>
    </g>
</svg>
