<svg xmlns="http://www.w3.org/2000/svg" xmlns:xlink="http://www.w3.org/1999/xlink" width="169" height="168" viewBox="0 0 169 168">
    <defs>
        <path id="78k7igbqla" d="M0 0L167.495 0 167.495 65.59 0 65.59z"/>
    </defs>
    <g fill="none" fill-rule="evenodd">
        <g>
            <g>
                <g>
                    <path fill="#FEFEFE" d="M144.99 83.298c0 33.956-27.42 61.483-61.242 61.483-33.823 0-61.242-27.527-61.242-61.483 0-33.956 27.42-61.483 61.242-61.483 33.822 0 61.241 27.527 61.241 61.483" transform="translate(-635.000000, -4330.000000) translate(527.000000, 4287.000000) translate(108.693931, 43.680739)"/>
                    <g transform="translate(-635.000000, -4330.000000) translate(527.000000, 4287.000000) translate(108.693931, 43.680739)">
                        <mask id="nqbrw26ctb" fill="#fff">
                            <use xlink:href="#78k7igbqla"/>
                        </mask>
                        <path fill="#FEFEFE" d="M4.309 65.388c3.101.839 6.296-1.008 7.13-4.123.665-2.47-.371-4.977-2.37-6.336C20.698 24.15 50.597 3.107 83.745 3.107c33.151 0 63.05 21.044 74.68 51.822-1.997 1.359-3.033 3.866-2.372 6.336.837 3.115 4.03 4.962 7.134 4.123 3.102-.838 4.941-4.045 4.106-7.16-.729-2.718-3.253-4.467-5.945-4.313C149.291 21.898 118.211 0 83.746 0 49.283 0 18.205 21.9 6.145 53.915 3.454 53.761.93 55.51.201 58.23c-.835 3.114 1.004 6.32 4.108 7.16" mask="url(#nqbrw26ctb)"/>
                    </g>
                    <path fill="#FEFEFE" d="M163.051 101.801c-3.096-.86-6.304.962-7.161 4.07-.682 2.468.338 4.986 2.33 6.358-11.828 30.883-41.05 51.26-74.474 51.26-33.423 0-62.643-20.377-74.47-51.26 1.991-1.372 3.012-3.89 2.33-6.357-.859-3.109-4.064-4.932-7.162-4.07-3.098.861-4.912 4.08-4.054 7.19.746 2.708 3.278 4.438 5.967 4.27 12.264 32.128 42.64 53.334 77.39 53.334s65.127-21.206 77.39-53.334c2.689.169 5.222-1.56 5.969-4.27.859-3.11-.958-6.329-4.055-7.19" transform="translate(-635.000000, -4330.000000) translate(527.000000, 4287.000000) translate(108.693931, 43.680739)"/>
                    <path fill="#153052" d="M62.742 74.996c-1.196 2.33-1.793 5.402-1.793 9.222 0 3.82.597 6.894 1.793 9.221 1.195 2.328 3.062 3.492 5.598 3.492s4.401-1.164 5.598-3.492c1.196-2.327 1.795-5.402 1.795-9.22 0-3.821-.6-6.894-1.795-9.223-1.197-2.327-3.062-3.492-5.598-3.492s-4.403 1.165-5.598 3.492m5.598 28.92c-5.255 0-9.185-1.79-11.794-5.376-2.609-3.58-3.914-8.365-3.914-14.35 0-5.983 1.305-10.767 3.914-14.35 2.609-3.582 6.539-5.373 11.794-5.373 5.253 0 9.185 1.79 11.793 5.374 2.61 3.582 3.913 8.366 3.913 14.35s-1.304 10.768-3.913 14.349c-2.608 3.586-6.54 5.377-11.793 5.377M112.38 65.341v7.386H97.34v6.403c1.126-.33 2.414-.493 3.87-.493 3.668 0 6.828 1.113 9.483 3.338 2.65 2.224 3.977 5.225 3.977 9 0 3.776-1.372 6.896-4.113 9.357-2.746 2.462-6.133 3.693-10.165 3.693-5.16 0-9.466-1.916-12.917-5.745l4.469-6.237c.326.327.762.728 1.308 1.203.545.475 1.543 1.104 2.997 1.887 1.453.786 2.907 1.177 4.36 1.177 1.453 0 2.744-.439 3.87-1.313 1.126-.876 1.69-2.17 1.69-3.885 0-1.714-.61-3.037-1.825-3.967-1.218-.93-2.79-1.394-4.715-1.394-1.927 0-4.16.692-6.705 2.078l-3.542-3.83V65.34h23z" transform="translate(-635.000000, -4330.000000) translate(527.000000, 4287.000000) translate(108.693931, 43.680739)"/>
                </g>
            </g>
        </g>
    </g>
</svg>
