<svg xmlns="http://www.w3.org/2000/svg" xmlns:xlink="http://www.w3.org/1999/xlink" width="169" height="168" viewBox="0 0 169 168">
    <defs>
        <path id="k7y1wsoxna" d="M0 0L167.495 0 167.495 65.59 0 65.59z"/>
    </defs>
    <g fill="none" fill-rule="evenodd">
        <g>
            <g>
                <g>
                    <path fill="#FEFEFE" d="M144.989 83.298c0 33.956-27.418 61.483-61.241 61.483s-61.24-27.527-61.24-61.483c0-33.956 27.417-61.483 61.24-61.483s61.24 27.527 61.24 61.483" transform="translate(-231.000000, -4330.000000) translate(123.000000, 4287.000000) translate(108.693931, 43.680739)"/>
                    <g transform="translate(-231.000000, -4330.000000) translate(123.000000, 4287.000000) translate(108.693931, 43.680739)">
                        <mask id="flsew2ewpb" fill="#fff">
                            <use xlink:href="#k7y1wsoxna"/>
                        </mask>
                        <path fill="#FEFEFE" d="M4.308 65.388c3.103.839 6.298-1.008 7.132-4.123.663-2.47-.372-4.977-2.372-6.336C20.699 24.15 50.598 3.107 83.748 3.107c33.15 0 63.048 21.044 74.677 51.822-1.996 1.359-3.032 3.866-2.37 6.336.836 3.115 4.028 4.962 7.133 4.123 3.103-.838 4.94-4.045 4.106-7.16-.73-2.718-3.251-4.467-5.945-4.313C149.29 21.898 118.21 0 83.747 0 49.283 0 18.205 21.9 6.145 53.915 3.454 53.761.93 55.51.2 58.23c-.835 3.114 1.004 6.32 4.107 7.16" mask="url(#flsew2ewpb)"/>
                    </g>
                    <path fill="#FEFEFE" d="M163.051 101.801c-3.096-.86-6.304.962-7.162 4.07-.68 2.468.34 4.986 2.33 6.358-11.827 30.883-41.05 51.26-74.472 51.26-33.424 0-62.644-20.377-74.47-51.26 1.99-1.372 3.01-3.89 2.329-6.357-.858-3.109-4.065-4.932-7.16-4.07-3.1.861-4.914 4.08-4.057 7.19.748 2.708 3.28 4.438 5.967 4.27 12.265 32.128 42.64 53.334 77.391 53.334 34.75 0 65.127-21.206 77.39-53.334 2.69.169 5.222-1.56 5.97-4.27.857-3.11-.96-6.329-4.056-7.19" transform="translate(-231.000000, -4330.000000) translate(123.000000, 4287.000000) translate(108.693931, 43.680739)"/>
                    <path fill="#8495AC" d="M62.742 74.996c-1.195 2.33-1.794 5.402-1.794 9.222 0 3.82.599 6.894 1.794 9.221 1.195 2.328 3.061 3.492 5.599 3.492 2.535 0 4.4-1.164 5.596-3.492 1.197-2.327 1.795-5.402 1.795-9.22 0-3.821-.598-6.894-1.795-9.223-1.196-2.327-3.061-3.492-5.596-3.492-2.538 0-4.404 1.165-5.6 3.492m5.6 28.92c-5.256 0-9.186-1.79-11.794-5.376-2.61-3.58-3.914-8.365-3.914-14.35 0-5.983 1.304-10.767 3.914-14.35 2.608-3.582 6.538-5.373 11.794-5.373 5.252 0 9.183 1.79 11.793 5.374 2.608 3.582 3.913 8.366 3.913 14.35s-1.305 10.768-3.913 14.349c-2.61 3.586-6.541 5.377-11.793 5.377M102.152 86.981L102.152 80.37 110.248 80.37 110.248 86.981 114.512 86.981 114.512 94.297 110.248 94.297 110.248 103.346 102.152 103.346 102.152 94.297 86.986 94.297 86.986 87.848 100.424 65.469 109.601 65.469 96.81 86.981z" transform="translate(-231.000000, -4330.000000) translate(123.000000, 4287.000000) translate(108.693931, 43.680739)"/>
                </g>
            </g>
        </g>
    </g>
</svg>
