<svg xmlns="http://www.w3.org/2000/svg" xmlns:xlink="http://www.w3.org/1999/xlink" width="169" height="167" viewBox="0 0 169 167">
    <defs>
        <path id="nnmydnz1ea" d="M0 0L167.495 0 167.495 65.19 0 65.19z"/>
    </defs>
    <g fill="none" fill-rule="evenodd">
        <g>
            <g>
                <g>
                    <path fill="#FEFEFE" d="M144.989 82.79c0 33.749-27.418 61.108-61.24 61.108-33.824 0-61.242-27.36-61.242-61.107 0-33.75 27.418-61.11 61.241-61.11s61.241 27.36 61.241 61.11" transform="translate(-1042.000000, -3929.000000) translate(934.000000, 3886.000000) translate(108.693931, 43.680739)"/>
                    <g transform="translate(-1042.000000, -3929.000000) translate(934.000000, 3886.000000) translate(108.693931, 43.680739)">
                        <mask id="g52t8m6pzb" fill="#fff">
                            <use xlink:href="#nnmydnz1ea"/>
                        </mask>
                        <path fill="#FEFEFE" d="M4.308 64.99c3.102.833 6.298-1.002 7.132-4.099.664-2.454-.372-4.946-2.372-6.297C20.7 24.004 50.598 3.088 83.748 3.088c33.15 0 63.048 20.916 74.678 51.506-1.997 1.35-3.033 3.843-2.372 6.297.837 3.097 4.03 4.932 7.134 4.098 3.103-.833 4.941-4.02 4.106-7.115-.729-2.702-3.251-4.44-5.945-4.288C149.29 21.765 118.21 0 83.748 0 49.283 0 18.205 21.766 6.145 53.586 3.454 53.433.93 55.172.2 57.874c-.835 3.095 1.004 6.282 4.107 7.115" mask="url(#g52t8m6pzb)"/>
                    </g>
                    <path fill="#FEFEFE" d="M163.051 101.18c-3.096-.855-6.304.957-7.162 4.046-.68 2.452.34 4.955 2.33 6.318-11.827 30.695-41.05 50.948-74.472 50.948-33.424 0-62.644-20.253-74.47-50.948 1.99-1.363 3.01-3.866 2.329-6.318-.858-3.09-4.065-4.901-7.16-4.046-3.1.857-4.914 4.056-4.057 7.147.748 2.692 3.28 4.41 5.967 4.244 12.265 31.932 42.64 53.01 77.391 53.01 34.75 0 65.127-21.078 77.39-53.01 2.69.168 5.222-1.55 5.97-4.244.857-3.091-.96-6.29-4.056-7.147" transform="translate(-1042.000000, -3929.000000) translate(934.000000, 3886.000000) translate(108.693931, 43.680739)"/>
                    <path fill="#153052" d="M62.742 74.538c-1.195 2.316-1.794 5.37-1.794 9.167 0 3.796.599 6.852 1.794 9.165 1.195 2.314 3.061 3.47 5.598 3.47 2.536 0 4.401-1.156 5.597-3.47 1.197-2.313 1.795-5.37 1.795-9.165 0-3.798-.598-6.851-1.795-9.167-1.196-2.312-3.061-3.47-5.597-3.47-2.537 0-4.403 1.158-5.598 3.47m5.598 28.745c-5.255 0-9.185-1.78-11.795-5.344-2.608-3.559-3.912-8.313-3.912-14.262 0-5.947 1.304-10.702 3.912-14.262 2.61-3.561 6.54-5.341 11.795-5.341 5.253 0 9.184 1.78 11.794 5.341 2.608 3.56 3.912 8.315 3.912 14.262 0 5.949-1.304 10.703-3.912 14.262-2.61 3.564-6.541 5.344-11.794 5.344M89.256 71.706v-7.371h23.773v5.986l-7.942 9.032c3.11.519 5.518 1.821 7.22 3.908 1.702 2.087 2.556 4.5 2.556 7.233 0 4.065-1.38 7.252-4.14 9.56-2.758 2.31-6.284 3.464-10.58 3.464-4.295 0-8.646-1.515-13.05-4.545l3.553-6.873c3.666 2.587 6.942 3.881 9.83 3.881 1.74 0 3.175-.425 4.306-1.276 1.128-.848 1.692-2.077 1.692-3.684 0-1.608-.647-2.883-1.941-3.825-1.299-.942-3.094-1.413-5.39-1.413-1.22 0-2.943.352-5.164 1.053v-6.374l7.442-8.756H89.256z" transform="translate(-1042.000000, -3929.000000) translate(934.000000, 3886.000000) translate(108.693931, 43.680739)"/>
                </g>
            </g>
        </g>
    </g>
</svg>
