<svg xmlns="http://www.w3.org/2000/svg" xmlns:xlink="http://www.w3.org/1999/xlink" width="169" height="168" viewBox="0 0 169 168">
    <defs>
        <path id="rcw6gpvxba" d="M0 0L167.495 0 167.495 65.59 0 65.59z"/>
    </defs>
    <g fill="none" fill-rule="evenodd">
        <g>
            <g>
                <g>
                    <path fill="#FEFEFE" d="M144.989 83.298c0 33.956-27.418 61.483-61.241 61.483s-61.241-27.527-61.241-61.483c0-33.956 27.418-61.483 61.24-61.483 33.824 0 61.242 27.527 61.242 61.483" transform="translate(-1041.000000, -4330.000000) translate(933.000000, 4287.000000) translate(108.693931, 43.680739)"/>
                    <g transform="translate(-1041.000000, -4330.000000) translate(933.000000, 4287.000000) translate(108.693931, 43.680739)">
                        <mask id="4s9dx3j9yb" fill="#fff">
                            <use xlink:href="#rcw6gpvxba"/>
                        </mask>
                        <path fill="#FEFEFE" d="M4.308 65.388c3.103.839 6.297-1.008 7.133-4.123.662-2.47-.374-4.977-2.372-6.336C20.7 24.15 50.599 3.107 83.747 3.107c33.15 0 63.05 21.044 74.678 51.822-1.997 1.359-3.033 3.866-2.37 6.336.836 3.115 4.028 4.962 7.133 4.123 3.103-.838 4.942-4.045 4.105-7.16-.727-2.718-3.25-4.467-5.943-4.313C149.29 21.898 118.212 0 83.747 0 49.282 0 18.205 21.9 6.146 53.915 3.453 53.761.93 55.51.2 58.23c-.834 3.114 1.004 6.32 4.107 7.16" mask="url(#4s9dx3j9yb)"/>
                    </g>
                    <path fill="#FEFEFE" d="M163.05 101.801c-3.096-.86-6.304.962-7.161 4.07-.68 2.468.339 4.986 2.33 6.358-11.826 30.883-41.049 51.26-74.472 51.26-33.423 0-62.644-20.377-74.47-51.26 1.99-1.372 3.01-3.89 2.328-6.357-.857-3.109-4.064-4.932-7.16-4.07-3.098.861-4.914 4.08-4.056 7.19.748 2.708 3.28 4.438 5.967 4.27 12.264 32.128 42.64 53.334 77.391 53.334 34.75 0 65.128-21.206 77.39-53.334 2.69.169 5.221-1.56 5.97-4.27.857-3.11-.959-6.329-4.056-7.19" transform="translate(-1041.000000, -4330.000000) translate(933.000000, 4287.000000) translate(108.693931, 43.680739)"/>
                    <path fill="#8495AC" d="M62.741 74.996c-1.194 2.33-1.793 5.402-1.793 9.222 0 3.82.599 6.894 1.793 9.221 1.195 2.328 3.062 3.492 5.6 3.492 2.534 0 4.4-1.164 5.597-3.492 1.197-2.327 1.794-5.402 1.794-9.22 0-3.821-.597-6.894-1.794-9.223-1.197-2.327-3.063-3.492-5.597-3.492-2.538 0-4.405 1.165-5.6 3.492m5.6 28.92c-5.257 0-9.187-1.79-11.795-5.376-2.61-3.58-3.913-8.365-3.913-14.35 0-5.983 1.304-10.767 3.913-14.35 2.608-3.582 6.538-5.373 11.795-5.373 5.252 0 9.183 1.79 11.793 5.374 2.609 3.582 3.913 8.366 3.913 14.35s-1.304 10.768-3.913 14.349c-2.61 3.586-6.541 5.377-11.793 5.377M103.873 85.362c-1.712 0-3.149.508-4.309 1.526-1.16 1.017-1.74 2.338-1.74 3.965 0 1.628.552 3.023 1.656 4.188 1.106 1.165 2.486 1.747 4.144 1.747s3.04-.517 4.143-1.554c1.106-1.034 1.66-2.375 1.66-4.02 0-1.646-.5-3.032-1.493-4.16-.995-1.127-2.349-1.692-4.061-1.692m1.131-13.978c-2.394 0-4.244.804-5.55 2.413-1.31 1.61-2.11 3.8-2.404 6.573 2.394-1.553 4.935-2.329 7.624-2.329 3.609 0 6.62 1.183 9.032 3.549 2.412 2.367 3.62 5.52 3.62 9.457 0 3.939-1.3 7.091-3.896 9.457-2.596 2.366-5.866 3.55-9.806 3.55-2.724 0-5.092-.528-7.098-1.58-2.01-1.055-3.565-2.525-4.669-4.41-2.21-3.662-3.314-8.247-3.314-13.756 0-3.55.433-6.665 1.298-9.346.865-2.68 2.051-4.796 3.562-6.35 2.947-3.106 6.593-4.66 10.94-4.66 1.805 0 3.526.269 5.165.805 1.639.537 2.901 1.081 3.785 1.636.884.554 1.859 1.257 2.927 2.107l-4.087 6.103c-.223-.223-.545-.52-.968-.889-.423-.368-1.261-.85-2.513-1.442-1.253-.59-2.468-.888-3.648-.888" transform="translate(-1041.000000, -4330.000000) translate(933.000000, 4287.000000) translate(108.693931, 43.680739)"/>
                </g>
            </g>
        </g>
    </g>
</svg>
