<svg xmlns="http://www.w3.org/2000/svg" xmlns:xlink="http://www.w3.org/1999/xlink" width="168" height="167" viewBox="0 0 168 167">
    <defs>
        <path id="8twmzfavva" d="M0 0L166.48 0 166.48 65.19 0 65.19z"/>
    </defs>
    <g fill="none" fill-rule="evenodd">
        <g>
            <g>
                <g>
                    <g>
                        <path fill="#FEFEFE" d="M144.11 82.79c0 33.749-27.251 61.108-60.87 61.108-33.618 0-60.87-27.36-60.87-61.107 0-33.75 27.252-61.11 60.87-61.11 33.619 0 60.87 27.36 60.87 61.11" transform="translate(-230.000000, -3929.000000) translate(121.000000, 3886.000000) translate(38.601583, 43.680739) translate(71.108179, 0.000000)"/>
                        <g transform="translate(-230.000000, -3929.000000) translate(121.000000, 3886.000000) translate(38.601583, 43.680739) translate(71.108179, 0.000000)">
                            <mask id="dzz9pggxjb" fill="#fff">
                                <use xlink:href="#8twmzfavva"/>
                            </mask>
                            <path fill="#FEFEFE" d="M4.282 64.99c3.084.833 6.26-1.002 7.088-4.099.66-2.454-.37-4.946-2.357-6.297C20.573 24.004 50.291 3.088 83.24 3.088c32.949 0 62.666 20.916 74.225 51.506-1.984 1.35-3.014 3.843-2.356 6.297.83 3.097 4.004 4.932 7.09 4.098 3.084-.833 4.911-4.02 4.08-7.115-.724-2.702-3.23-4.44-5.908-4.288C148.386 21.765 117.494 0 83.24 0 48.984 0 18.094 21.766 6.107 53.586 3.433 53.433.924 55.172.2 57.874c-.83 3.095.998 6.282 4.082 7.115" mask="url(#dzz9pggxjb)"/>
                        </g>
                        <path fill="#FEFEFE" d="M162.063 101.18c-3.078-.855-6.266.957-7.118 4.046-.677 2.452.336 4.955 2.316 6.318-11.756 30.695-40.802 50.948-74.021 50.948-33.222 0-62.265-20.253-74.02-50.948 1.978-1.363 2.993-3.866 2.315-6.318-.852-3.09-4.04-4.901-7.117-4.046-3.08.857-4.883 4.056-4.031 7.147.744 2.692 3.26 4.41 5.93 4.244 12.19 31.932 42.382 53.01 76.923 53.01 34.539 0 64.732-21.078 76.92-53.01 2.674.168 5.19-1.55 5.934-4.244.852-3.091-.954-6.29-4.031-7.147" transform="translate(-230.000000, -3929.000000) translate(121.000000, 3886.000000) translate(38.601583, 43.680739) translate(71.108179, 0.000000)"/>
                        <path fill="#153052" d="M66.501 74.538c-1.187 2.316-1.783 5.37-1.783 9.167 0 3.796.596 6.852 1.783 9.165 1.188 2.314 3.043 3.47 5.564 3.47 2.52 0 4.375-1.156 5.564-3.47 1.189-2.313 1.784-5.37 1.784-9.165 0-3.798-.595-6.851-1.784-9.167-1.19-2.312-3.043-3.47-5.564-3.47-2.52 0-4.376 1.158-5.564 3.47m5.564 28.745c-5.223 0-9.13-1.78-11.722-5.344-2.593-3.559-3.89-8.313-3.89-14.262 0-5.947 1.297-10.702 3.89-14.262 2.593-3.561 6.499-5.341 11.722-5.341 5.222 0 9.13 1.78 11.721 5.341 2.594 3.56 3.89 8.315 3.89 14.262 0 5.949-1.296 10.703-3.89 14.262-2.592 3.564-6.5 5.344-11.721 5.344M90.215 64.941L105.503 64.941 105.503 102.848 97.4 102.848 97.4 72.153 90.215 72.153z" transform="translate(-230.000000, -3929.000000) translate(121.000000, 3886.000000) translate(38.601583, 43.680739) translate(71.108179, 0.000000)"/>
                    </g>
                </g>
            </g>
        </g>
    </g>
</svg>
