<svg xmlns="http://www.w3.org/2000/svg" xmlns:xlink="http://www.w3.org/1999/xlink" width="169" height="166" viewBox="0 0 169 166">
    <defs>
        <path id="hptrn0powa" d="M0 0L167.495 0 167.495 64.909 0 64.909z"/>
    </defs>
    <g fill="none" fill-rule="evenodd">
        <g>
            <g>
                <g>
                    <path fill="#FEFEFE" d="M144.989 82.433c0 33.602-27.418 60.844-61.241 60.844s-61.241-27.242-61.241-60.844c0-33.604 27.418-60.845 61.24-60.845 33.824 0 61.242 27.241 61.242 60.845" transform="translate(-635.000000, -3930.000000) translate(527.000000, 3886.000000) translate(108.693931, 44.232190)"/>
                    <g transform="translate(-635.000000, -3930.000000) translate(527.000000, 3886.000000) translate(108.693931, 44.232190)">
                        <mask id="w7pjl49y5b" fill="#fff">
                            <use xlink:href="#hptrn0powa"/>
                        </mask>
                        <path fill="#FEFEFE" d="M4.308 64.709c3.103.83 6.298-.998 7.131-4.08.664-2.445-.372-4.926-2.37-6.271C20.7 23.9 50.598 3.075 83.747 3.075c33.15 0 63.049 20.825 74.678 51.283-1.997 1.345-3.032 3.826-2.37 6.27.835 3.083 4.028 4.91 7.133 4.08 3.103-.83 4.942-4.003 4.106-7.084-.73-2.69-3.252-4.422-5.945-4.269C149.29 21.671 118.21 0 83.747 0 49.283 0 18.204 21.672 6.145 53.355 3.454 53.202.93 54.934.2 57.624c-.835 3.081 1.004 6.255 4.107 7.085" mask="url(#w7pjl49y5b)"/>
                    </g>
                    <path fill="#FEFEFE" d="M163.05 100.743c-3.095-.851-6.304.953-7.161 4.029-.68 2.441.339 4.933 2.33 6.29-11.826 30.563-41.048 50.728-74.472 50.728-33.423 0-62.644-20.165-74.47-50.727 1.99-1.358 3.01-3.85 2.328-6.291-.857-3.076-4.064-4.88-7.16-4.029-3.1.854-4.913 4.038-4.056 7.116.748 2.68 3.28 4.392 5.967 4.226 12.264 31.794 42.64 52.78 77.391 52.78 34.75 0 65.127-20.986 77.39-52.78 2.69.167 5.222-1.544 5.97-4.226.857-3.078-.96-6.262-4.056-7.116" transform="translate(-635.000000, -3930.000000) translate(527.000000, 3886.000000) translate(108.693931, 44.232190)"/>
                    <path fill="#8495AC" d="M62.742 74.217c-1.195 2.305-1.794 5.345-1.794 9.126 0 3.78.599 6.823 1.794 9.125 1.194 2.304 3.061 3.456 5.599 3.456 2.534 0 4.4-1.152 5.596-3.456 1.198-2.302 1.795-5.345 1.795-9.125 0-3.78-.597-6.821-1.795-9.126-1.196-2.303-3.062-3.456-5.596-3.456-2.538 0-4.405 1.153-5.6 3.456m5.6 28.62c-5.257 0-9.187-1.772-11.795-5.32-2.61-3.544-3.913-8.278-3.913-14.201 0-5.922 1.304-10.656 3.913-14.2 2.608-3.547 6.538-5.319 11.795-5.319 5.252 0 9.183 1.772 11.793 5.318 2.608 3.545 3.913 8.28 3.913 14.2 0 5.924-1.305 10.658-3.913 14.201-2.61 3.549-6.541 5.321-11.793 5.321M104.02 79.374c.959-1.35 1.44-2.654 1.44-3.914 0-1.26-.418-2.314-1.25-3.159-.835-.846-1.903-1.27-3.208-1.27-2.39 0-4.656 1.693-6.793 5.076l-6.794-3.995c1.774-2.736 3.724-4.806 5.844-6.21 2.119-1.404 4.818-2.105 8.097-2.105 3.278 0 6.159 1.034 8.641 3.103 2.48 2.07 3.724 4.889 3.724 8.451 0 1.944-.5 3.807-1.495 5.59-.997 1.781-2.835 4.058-5.517 6.829l-6.848 7.074h15.001v7.56H88.068v-6.263L99.209 84.8c2.246-2.267 3.85-4.077 4.811-5.427" transform="translate(-635.000000, -3930.000000) translate(527.000000, 3886.000000) translate(108.693931, 44.232190)"/>
                </g>
            </g>
        </g>
    </g>
</svg>
