<svg xmlns="http://www.w3.org/2000/svg" xmlns:xlink="http://www.w3.org/1999/xlink" width="54" height="50" viewBox="0 0 54 50">
    <defs>
        <path id="plvhpiheka" d="M0.361 0.128L24.952 0.128 24.952 48.889 0.361 48.889z"/>
        <path id="a80kn0vf9c" d="M0 0.409L24.573 0.409 24.573 49.416 0 49.416z"/>
    </defs>
    <g fill="none" fill-rule="evenodd">
        <g>
            <g>
                <g>
                    <g transform="translate(-205.000000, -3168.000000) translate(120.000000, 3138.000000) translate(85.000000, 30.000000) translate(28.653061, 0.702556)">
                        <mask id="hue1pu5h6b" fill="#fff">
                            <use xlink:href="#plvhpiheka"/>
                        </mask>
                        <path fill="#8E9AA5" d="M12.776 24.917h12.176V.128H.765C.643.315.458.467.46.616c.112 9.577-.567 19.252.584 28.701 1.244 10.204 7.949 16.69 17.85 19.498.826.233 1.822-.15 2.739-.245-.36-.94-.486-2.1-1.118-2.785-5.302-5.755-7.823-12.517-7.738-20.868" mask="url(#hue1pu5h6b)"/>
                    </g>
                    <g transform="translate(-205.000000, -3168.000000) translate(120.000000, 3138.000000) translate(85.000000, 30.000000) translate(0.000000, 0.147000)">
                        <mask id="iotrfgo6fd" fill="#fff">
                            <use xlink:href="#a80kn0vf9c"/>
                        </mask>
                        <path fill="#8E9AA5" d="M.336.433c0 10.247-.903 20.19.25 29.885C1.773 40.28 8.55 46.607 18.236 49.345c.875.248 1.951-.223 2.934-.36-.371-.855-.545-1.901-1.145-2.536-4.89-5.17-7.32-11.38-7.899-18.406-.059-.71-.008-1.43-.008-2.555 3.386 0 6.56-.101 9.725.036 1.962.086 2.771-.413 2.73-2.582-.128-6.732-.06-13.468-.04-20.202.004-1.305-.022-2.345-1.814-2.331C15.222.465 7.725.433.336.433" mask="url(#iotrfgo6fd)"/>
                    </g>
                </g>
            </g>
        </g>
    </g>
</svg>
