<svg xmlns="http://www.w3.org/2000/svg" xmlns:xlink="http://www.w3.org/1999/xlink" width="27" height="27" viewBox="0 0 27 27">
    <defs>
        <path id="znyg6cycda" d="M20.223.595c-3.41 0-6.176 2.74-6.176 6.12 0 4.308-3.524 7.8-7.87 7.8-3.412 0-6.177 2.74-6.177 6.12s2.765 6.12 6.176 6.12c3.41 0 6.176-2.74 6.176-6.12 0-4.307 3.524-7.8 7.871-7.8 3.411 0 6.177-2.74 6.177-6.12S23.634.596 20.223.596z"/>
        <path id="5l7q7p5voc" d="M6.176.595C2.766.595 0 3.335 0 6.715s2.765 6.12 6.176 6.12c3.41 0 6.176-2.74 6.176-6.12S9.587.596 6.176.596z"/>
    </defs>
    <g fill="none" fill-rule="evenodd">
        <g>
            <g>
                <g transform="translate(-388.000000, -3244.000000) translate(388.000000, 3244.000000) translate(0.000000, 0.027316)">
                    <mask id="oagl1p77qb" fill="#fff">
                        <use xlink:href="#znyg6cycda"/>
                    </mask>
                    <path fill="#59C5C5" d="M20.223.595c-3.41 0-6.176 2.74-6.176 6.12 0 4.308-3.524 7.8-7.87 7.8-3.412 0-6.177 2.74-6.177 6.12s2.765 6.12 6.176 6.12c3.41 0 6.176-2.74 6.176-6.12 0-4.307 3.524-7.8 7.871-7.8 3.411 0 6.177-2.74 6.177-6.12S23.634.596 20.223.596z" mask="url(#oagl1p77qb)"/>
                </g>
                <g transform="translate(-388.000000, -3244.000000) translate(388.000000, 3244.000000) translate(0.000000, 0.027316)">
                    <mask id="wtx0io6aud" fill="#fff">
                        <use xlink:href="#5l7q7p5voc"/>
                    </mask>
                    <path fill="#59C5C5" d="M6.176.595C2.766.595 0 3.335 0 6.715s2.765 6.12 6.176 6.12c3.41 0 6.176-2.74 6.176-6.12S9.587.596 6.176.596z" mask="url(#wtx0io6aud)"/>
                </g>
            </g>
        </g>
    </g>
</svg>
