<svg width="37" height="37" viewBox="0 0 37 37" fill="none" xmlns="http://www.w3.org/2000/svg">
<g clip-path="url(#clip0)">
<path d="M23.709 8.08398H13.2923C10.4158 8.08398 8.08398 10.4158 8.08398 13.2923V23.709C8.08398 26.5855 10.4158 28.9173 13.2923 28.9173H23.709C26.5855 28.9173 28.9173 26.5855 28.9173 23.709V13.2923C28.9173 10.4158 26.5855 8.08398 23.709 8.08398Z" stroke="white" stroke-width="2" stroke-linecap="round" stroke-linejoin="round"/>
<path d="M22.6672 17.8446C22.7957 18.7115 22.6477 19.5969 22.244 20.3748C21.8404 21.1527 21.2017 21.7835 20.4189 22.1775C19.636 22.5716 18.7489 22.7087 17.8836 22.5695C17.0183 22.4302 16.219 22.0217 15.5993 21.402C14.9796 20.7823 14.5711 19.983 14.4318 19.1177C14.2926 18.2524 14.4297 17.3653 14.8238 16.5824C15.2178 15.7996 15.8486 15.1609 16.6265 14.7573C17.4045 14.3537 18.2898 14.2056 19.1568 14.3341C20.0411 14.4653 20.8597 14.8773 21.4919 15.5095C22.124 16.1416 22.536 16.9603 22.6672 17.8446Z" stroke="white" stroke-width="2" stroke-linecap="round" stroke-linejoin="round"/>
</g>
<defs>
<clipPath id="clip0">
<rect width="25" height="25" fill="white" transform="translate(6 6)"/>
</clipPath>
</defs>
</svg>
