<svg width="37" height="37" viewBox="0 0 37 37" fill="none" xmlns="http://www.w3.org/2000/svg">
<g clip-path="url(#clip0)">
<path fill-rule="evenodd" clip-rule="evenodd" d="M31.0751 12.8492C30.3561 13.1756 29.5656 13.3724 28.7908 13.5019C29.1592 13.4408 29.7004 12.7745 29.9172 12.505C30.2488 12.0935 30.5234 11.625 30.6782 11.1187C30.6992 11.0787 30.713 11.0292 30.674 10.9998C30.6246 10.9808 30.5919 10.9903 30.553 11.0103C29.6877 11.4734 28.7919 11.8113 27.8393 12.0482C27.7604 12.0682 27.7024 12.0482 27.6518 11.9987C27.5729 11.9092 27.4982 11.8261 27.414 11.7566C27.014 11.4166 26.5845 11.1482 26.0992 10.9503C25.4634 10.6913 24.7688 10.5819 24.0835 10.6271C23.4172 10.6703 22.7625 10.8566 22.1709 11.1661C21.5772 11.4756 21.0487 11.9071 20.6276 12.4271C20.1919 12.965 19.8698 13.5998 19.7056 14.2734C19.5477 14.9229 19.5603 15.565 19.6561 16.2219C19.6719 16.3313 19.6614 16.345 19.5624 16.3313C15.8361 15.7756 12.7456 14.4429 10.2372 11.584C10.1287 11.4598 10.0687 11.4598 9.97926 11.5934C8.88242 13.2387 9.41502 15.8819 10.7866 17.1808C10.9687 17.3534 11.1572 17.5271 11.3593 17.6861C11.2856 17.6998 10.373 17.6019 9.56037 17.1808C9.45089 17.1124 9.39612 17.1513 9.38664 17.2756C9.37612 17.4524 9.39186 17.6166 9.41607 17.8092C9.62659 19.4777 10.7814 21.0198 12.3635 21.6219C12.5509 21.7008 12.7593 21.7703 12.9614 21.805C12.6014 21.8829 12.2298 21.9398 11.1961 21.8598C11.0677 21.8345 11.0181 21.8987 11.0676 22.0219C11.8434 24.1398 13.5203 24.7682 14.7761 25.1271C14.9445 25.1566 15.1129 25.1566 15.2814 25.1956C15.2708 25.2113 15.2602 25.2113 15.2508 25.2261C14.8339 25.8608 13.3909 26.3345 12.7183 26.5682C11.4951 26.9956 10.1645 27.1882 8.87189 27.0608C8.66452 27.0303 8.62132 27.0334 8.56659 27.0608C8.50869 27.0956 8.55822 27.145 8.62454 27.1987C8.8877 27.3724 9.15397 27.525 9.4266 27.6735C10.2477 28.1092 11.1024 28.4545 11.9971 28.7029C16.6182 29.9777 21.8224 29.0408 25.2919 25.5935C28.0161 22.8861 28.9708 19.1534 28.9708 15.4156C28.9708 15.2692 29.1445 15.1892 29.2466 15.1113C29.9561 14.5798 30.5203 13.9419 31.0477 13.2292C31.1667 13.0703 31.1592 12.9271 31.1592 12.8703V12.8492C31.1592 12.7892 31.1667 12.8082 31.0751 12.8492" fill="white"/>
</g>
<defs>
<clipPath id="clip0">
<rect width="23.1579" height="20" fill="white" transform="translate(8 10)"/>
</clipPath>
</defs>
</svg>
