<svg width="37" height="37" viewBox="0 0 37 37" fill="none" xmlns="http://www.w3.org/2000/svg">
<g clip-path="url(#clip0)">
<path fill-rule="evenodd" clip-rule="evenodd" d="M15.6552 19.3859V30.5355C15.6552 30.6952 15.7857 30.8256 15.9454 30.8256H20.0859C20.2466 30.8256 20.376 30.6952 20.376 30.5355V19.2033H23.378C23.5293 19.2033 23.6557 19.0885 23.6682 18.9372L23.9562 15.5251C23.9708 15.355 23.8372 15.2089 23.6672 15.2089H20.376V12.788C20.376 12.2193 20.8372 11.7581 21.4048 11.7581H23.7182C23.8779 11.7581 24.0083 11.6287 24.0083 11.468V8.05585C24.0083 7.89411 23.8779 7.76367 23.7182 7.76367H19.8084C17.5148 7.76367 15.6552 9.6242 15.6552 11.9178V15.2089H13.5851C13.4244 15.2089 13.2949 15.3393 13.2949 15.499V18.9132C13.2949 19.0739 13.4244 19.2033 13.5851 19.2033H15.6552V19.3849V19.3859Z" fill="white"/>
</g>
<defs>
<clipPath id="clip0">
<rect width="11.4783" height="24" fill="white" transform="translate(13 7)"/>
</clipPath>
</defs>
</svg>
