<svg xmlns="http://www.w3.org/2000/svg" width="18" height="12" viewBox="0 0 18 12">
    <g fill="none" fill-rule="evenodd">
        <g fill="#58585B">
            <g>
                <g>
                    <g>
                        <g>
                            <path d="M.897.868L6.362 5.45.897 10.034zM16.937.212l-7.512 6.3c-.011.01-.031.01-.044 0L1.87.212h15.067zM17.834 10.034L12.369 5.45 17.834.868z" transform="translate(-120.000000, -664.000000) translate(-1.000000, 0.000000) translate(0.000000, 428.000000) translate(121.000000, 127.000000) translate(0.000000, 109.000000)"/>
                            <path d="M11.534 6.15l5.798 4.864H1.4L7.2 6.15l1.873 1.572c.161.136.424.137.584.003l1.878-1.575z" transform="translate(-120.000000, -664.000000) translate(-1.000000, 0.000000) translate(0.000000, 428.000000) translate(121.000000, 127.000000) translate(0.000000, 109.000000)"/>
                        </g>
                    </g>
                </g>
            </g>
        </g>
    </g>
</svg>
