<svg width="37" height="37" viewBox="0 0 37 37" fill="none" xmlns="http://www.w3.org/2000/svg">
<g clip-path="url(#clip0)">
<path d="M24 8H14C11.2386 8 9 10.2386 9 13V23C9 25.7614 11.2386 28 14 28H24C26.7614 28 29 25.7614 29 23V13C29 10.2386 26.7614 8 24 8Z" stroke="white" stroke-width="2" stroke-linecap="round" stroke-linejoin="round"/>
<path d="M22.9997 17.3703C23.1231 18.2025 22.981 19.0525 22.5935 19.7993C22.206 20.5461 21.5929 21.1517 20.8413 21.53C20.0898 21.9082 19.2382 22.0399 18.4075 21.9062C17.5768 21.7726 16.8095 21.3804 16.2145 20.7855C15.6196 20.1905 15.2274 19.4232 15.0938 18.5925C14.9601 17.7619 15.0918 16.9102 15.47 16.1587C15.8483 15.4072 16.4539 14.794 17.2007 14.4065C17.9475 14.019 18.7975 13.8769 19.6297 14.0003C20.4786 14.1262 21.2646 14.5218 21.8714 15.1286C22.4782 15.7355 22.8738 16.5214 22.9997 17.3703Z" stroke="white" stroke-width="2" stroke-linecap="round" stroke-linejoin="round"/>
</g>
<defs>
<clipPath id="clip0">
<rect width="24" height="24" fill="white" transform="translate(7 6)"/>
</clipPath>
</defs>
</svg>
