<svg xmlns="http://www.w3.org/2000/svg" xmlns:xlink="http://www.w3.org/1999/xlink" width="370" height="49" viewBox="0 0 370 49">
    <defs>
        <path id="7aaj0mx14a" d="M36.554.793C30.389.793 25.39 5.798 25.39 11.97c0 7.867-6.369 14.246-14.226 14.246C4.998 26.216 0 31.22 0 37.393S4.998 48.57 11.164 48.57c6.165 0 11.163-5.004 11.163-11.177 0-7.867 6.37-14.245 14.227-14.245 6.166 0 11.165-5.005 11.165-11.178C47.719 5.798 42.72.793 36.554.793z"/>
        <path id="3mw80ifqed" d="M11.586.793C5.42.793.422 5.798.422 11.97c0 6.173 4.999 11.178 11.164 11.178 7.857 0 14.227 6.378 14.227 14.245 0 6.173 4.998 11.177 11.164 11.177 6.165 0 11.164-5.004 11.164-11.177s-4.999-11.177-11.164-11.177c-7.858 0-14.228-6.379-14.228-14.246C22.75 5.798 17.751.793 11.586.793z"/>
        <path id="8dyiup840g" d="M37.398.793c-6.165 0-11.163 5.005-11.163 11.177 0 7.867-6.37 14.246-14.227 14.246C5.842 26.216.843 31.22.843 37.393S5.842 48.57 12.008 48.57c6.165 0 11.164-5.004 11.164-11.177 0-7.867 6.369-14.245 14.226-14.245 6.166 0 11.164-5.005 11.164-11.178 0-6.172-4.998-11.177-11.164-11.177z"/>
        <path id="ce2zn5mklj" d="M11.295.793C5.13.793.131 5.798.131 11.97c0 6.173 4.998 11.178 11.164 11.178 7.858 0 14.227 6.378 14.227 14.245 0 6.173 4.998 11.177 11.164 11.177 6.166 0 11.163-5.004 11.163-11.177s-4.997-11.177-11.163-11.177c-7.859 0-14.228-6.379-14.228-14.246 0-6.172-4.999-11.177-11.163-11.177z"/>
        <path id="bde284g04m" d="M0.288 0.534L12.346 0.534 12.346 17.045 0.288 17.045z"/>
        <path id="8l2c4ilwvo" d="M0 48.864L369.862 48.864 369.862 0.793 0 0.793z"/>
        <path id="cf3qlmxq9q" d="M11.164.793C4.998.793 0 5.798 0 11.97c0 6.173 4.998 11.178 11.164 11.178 6.165 0 11.163-5.005 11.163-11.178C22.327 5.798 17.33.793 11.164.793z"/>
        <path id="k3uo5c6a2t" d="M.422 11.257c0 6.173 4.997 11.177 11.163 11.177s11.164-5.004 11.164-11.177S17.751.08 11.585.08C5.419.08.422 5.084.422 11.257"/>
        <path id="pavsokvaxw" d="M12.008.793C5.842.793.843 5.798.843 11.97c0 6.173 4.999 11.178 11.165 11.178 6.165 0 11.164-5.005 11.164-11.178 0-6.172-4.999-11.177-11.164-11.177z"/>
        <path id="cxz1nnq8zz" d="M.13 11.257c0 6.173 4.999 11.177 11.164 11.177s11.164-5.004 11.164-11.177S17.459.08 11.294.08.131 5.084.131 11.257"/>
        <path id="e65r36kooC" d="M11.716.793C5.551.793.553 5.798.553 11.97c0 6.173 4.998 11.178 11.163 11.178 6.167 0 11.163-5.005 11.163-11.178 0-6.172-4.996-11.177-11.163-11.177z"/>
        <linearGradient id="j8c8wm7rxb" x1="0%" x2="99.999%" y1="50%" y2="50%">
            <stop offset="0%" stop-color="#18275F"/>
            <stop offset="100%" stop-color="#118ACA"/>
        </linearGradient>
        <linearGradient id="n58x8onere" x1="0%" x2="99.999%" y1="50%" y2="50%">
            <stop offset="0%" stop-color="#18275F"/>
            <stop offset="100%" stop-color="#118ACA"/>
        </linearGradient>
        <linearGradient id="wdna2st6nh" x1=".001%" x2="100%" y1="50%" y2="50%">
            <stop offset="0%" stop-color="#18275F"/>
            <stop offset="100%" stop-color="#118ACA"/>
        </linearGradient>
        <linearGradient id="f95j7n3r2k" x1=".001%" x2="100%" y1="50%" y2="50%">
            <stop offset="0%" stop-color="#18275F"/>
            <stop offset="100%" stop-color="#118ACA"/>
        </linearGradient>
        <linearGradient id="3xtizgkghr" x1=".001%" x2="99.999%" y1="50.001%" y2="50.001%">
            <stop offset="0%" stop-color="#18275F"/>
            <stop offset="100%" stop-color="#118ACA"/>
        </linearGradient>
        <linearGradient id="f6ght11yau" x1="-.001%" x2="99.997%" y1="49.999%" y2="49.999%">
            <stop offset="0%" stop-color="#18275F"/>
            <stop offset="100%" stop-color="#118ACA"/>
        </linearGradient>
        <linearGradient id="ojppq19mjx" x1=".003%" x2="99.996%" y1="50.001%" y2="50.001%">
            <stop offset="0%" stop-color="#18275F"/>
            <stop offset="100%" stop-color="#118ACA"/>
        </linearGradient>
        <linearGradient id="4jzp56j8fA" x1=".002%" x2="100%" y1="49.999%" y2="49.999%">
            <stop offset="0%" stop-color="#18275F"/>
            <stop offset="100%" stop-color="#118ACA"/>
        </linearGradient>
        <linearGradient id="v4kglbjy8D" x1="0%" x2="100.004%" y1="50.001%" y2="50.001%">
            <stop offset="0%" stop-color="#18275F"/>
            <stop offset="100%" stop-color="#118ACA"/>
        </linearGradient>
    </defs>
    <g fill="none" fill-rule="evenodd">
        <g>
            <g>
                <g>
                    <g>
                        <g transform="translate(-120.000000, -475.000000) translate(-1.000000, 0.000000) translate(0.000000, 428.000000) translate(121.000000, 46.000000) translate(0.000000, 0.343182)">
                            <mask id="yq4qtb1r5c" fill="#fff">
                                <use xlink:href="#7aaj0mx14a"/>
                            </mask>
                            <path fill="url(#j8c8wm7rxb)" d="M36.554.793C30.389.793 25.39 5.798 25.39 11.97c0 7.867-6.369 14.246-14.226 14.246C4.998 26.216 0 31.22 0 37.393S4.998 48.57 11.164 48.57c6.165 0 11.163-5.004 11.163-11.177 0-7.867 6.37-14.245 14.227-14.245 6.166 0 11.165-5.005 11.165-11.178C47.719 5.798 42.72.793 36.554.793z" mask="url(#yq4qtb1r5c)"/>
                        </g>
                        <g transform="translate(-120.000000, -475.000000) translate(-1.000000, 0.000000) translate(0.000000, 428.000000) translate(121.000000, 46.000000) translate(24.969325, 0.343182)">
                            <mask id="rslxporuuf" fill="#fff">
                                <use xlink:href="#3mw80ifqed"/>
                            </mask>
                            <path fill="url(#n58x8onere)" d="M11.586.793C5.42.793.422 5.798.422 11.97c0 6.173 4.999 11.178 11.164 11.178 7.857 0 14.227 6.378 14.227 14.245 0 6.173 4.998 11.177 11.164 11.177 6.165 0 11.164-5.004 11.164-11.177s-4.999-11.177-11.164-11.177c-7.858 0-14.228-6.379-14.228-14.246C22.75 5.798 17.751.793 11.586.793z" mask="url(#rslxporuuf)"/>
                        </g>
                        <g transform="translate(-120.000000, -475.000000) translate(-1.000000, 0.000000) translate(0.000000, 428.000000) translate(121.000000, 46.000000) translate(49.938650, 0.343182)">
                            <mask id="afkvwxmibi" fill="#fff">
                                <use xlink:href="#8dyiup840g"/>
                            </mask>
                            <path fill="url(#wdna2st6nh)" d="M37.398.793c-6.165 0-11.163 5.005-11.163 11.177 0 7.867-6.37 14.246-14.227 14.246C5.842 26.216.843 31.22.843 37.393S5.842 48.57 12.008 48.57c6.165 0 11.164-5.004 11.164-11.177 0-7.867 6.369-14.245 14.226-14.245 6.166 0 11.164-5.005 11.164-11.178 0-6.172-4.998-11.177-11.164-11.177z" mask="url(#afkvwxmibi)"/>
                        </g>
                        <g transform="translate(-120.000000, -475.000000) translate(-1.000000, 0.000000) translate(0.000000, 428.000000) translate(121.000000, 46.000000) translate(76.042945, 0.343182)">
                            <mask id="7hydlnvd0l" fill="#fff">
                                <use xlink:href="#ce2zn5mklj"/>
                            </mask>
                            <path fill="url(#f95j7n3r2k)" d="M11.295.793C5.13.793.131 5.798.131 11.97c0 6.173 4.998 11.178 11.164 11.178 7.858 0 14.227 6.378 14.227 14.245 0 6.173 4.998 11.177 11.164 11.177 6.166 0 11.163-5.004 11.163-11.177s-4.997-11.177-11.163-11.177c-7.859 0-14.228-6.379-14.228-14.246 0-6.172-4.999-11.177-11.163-11.177z" mask="url(#7hydlnvd0l)"/>
                        </g>
                        <g transform="translate(-120.000000, -475.000000) translate(-1.000000, 0.000000) translate(0.000000, 428.000000) translate(121.000000, 46.000000) translate(0.000000, 0.343182)">
                            <path fill="#000" d="M266.352 37.945h4.564c4.822 0 6.907-1.405 6.907-5.19 0-3.65-1.953-5.023-6.778-5.023h-4.693v10.213zm4.693-11.687c5.77 0 8.506 2.009 8.506 6.497 0 4.755-2.704 6.664-8.667 6.664h-4.532v9.076h-1.695V26.258h6.388zM291.349 43.037V38.95c-.88 1.005-2.932 1.307-4.857 1.742-2.215.536-4.235 1.273-4.235 3.65 0 1.877 1.24 3.148 3.584 3.148 2.835 0 4.758-1.54 5.508-4.453m-10.787 1.34c0-3.316 2.738-4.221 5.702-4.89 2.283-.537 4.4-.872 5.085-2.01v-.168c0-2.378-1.238-3.583-4.106-3.583-2.608 0-4.562.97-4.596 3.683v.135h-1.661c.033-3.55 2.671-5.191 6.257-5.191 3.781 0 5.704 1.775 5.704 5.325v9.344l.03 1.474h-1.66v-3.082c-1.304 2.68-3.585 3.417-5.64 3.417-3.224 0-5.115-1.842-5.115-4.455M298.358 36.17c.587-2.276 1.921-3.516 4.758-3.516h.912v1.54h-1.24c-3.453 0-4.333 2.21-4.333 6.464v7.838h-1.63V32.688h1.533v3.483zM311.783 48.495c-2.574-.032-3.422-1.171-3.422-3.582V34.093h-2.999v-1.407h2.999V29.24l1.564-1.24v4.689h3.91v1.406h-3.943v10.617c0 1.675.521 2.344 2.119 2.378h1.792v1.406h-2.02zM318.333 36.908c.783-2.881 2.64-4.556 5.54-4.556 3.227 0 5.314 2.177 5.314 6.063v10.08h-1.63V38.55c0-3.115-1.533-4.723-3.943-4.723-3.554 0-5.214 3.014-5.214 8.34v6.33h-1.631V32.686h1.564v4.22zM333.586 39.754h11.048c-.065-3.784-2.052-5.994-5.246-5.994-3.26 0-5.54 2.377-5.802 5.994m-1.596.872c0-4.857 3.03-8.274 7.43-8.274 4.237 0 6.909 3.082 6.909 8.106v.602h-12.743c.098 3.718 2.249 6.363 5.868 6.363 3.323 0 4.952-1.74 5.67-3.717l1.368.503c-.847 2.444-2.999 4.621-7.038 4.621-4.662 0-7.464-3.417-7.464-8.204M351.187 36.17c.586-2.276 1.922-3.516 4.757-3.516h.914v1.54h-1.24c-3.453 0-4.333 2.21-4.333 6.464v7.838h-1.632V32.688h1.534v3.483z"/>
                            <g transform="translate(357.515337, 31.818182)">
                                <mask id="n9zjgjv3xn" fill="#fff">
                                    <use xlink:href="#bde284g04m"/>
                                </mask>
                                <path fill="#000" d="M.288 14.065l1.238-.872c1.434 1.842 3.586 2.513 5.409 2.513 2.38 0 3.878-1.206 3.878-3.148 0-2.01-2.02-2.612-4.724-3.283C2.959 8.54.906 7.768.906 4.89.906 2.376 3.09.534 6.056.534c2.412 0 4.4 1.006 5.997 2.747l-1.174.937C9.64 2.712 7.849 1.874 6.022 1.874c-2.183 0-3.583 1.173-3.583 2.947 0 1.976 1.596 2.378 4.4 3.049 2.704.635 5.507 1.606 5.507 4.52 0 2.814-2.152 4.656-5.442 4.656-2.575 0-5.15-.97-6.616-2.981" mask="url(#n9zjgjv3xn)"/>
                            </g>
                            <path fill="#000" d="M267.434 3.697c.418 0 .665-.215.665-.587 0-.369-.247-.569-.665-.569h-.633v1.156h.633zm.53.306l.626.93h-.53l-.507-.84h-.752v.84h-.459V2.146h1.092c.706 0 1.098.346 1.098.958 0 .436-.2.75-.569.899zm1.669-.39c0-1.26-.979-2.301-2.255-2.301-1.284 0-2.264 1.056-2.264 2.319 0 1.261.973 2.301 2.248 2.301 1.282 0 2.27-1.056 2.27-2.318zm.457 0c0 1.528-1.196 2.813-2.728 2.813-1.526 0-2.704-1.27-2.704-2.795 0-1.526 1.186-2.813 2.72-2.813 1.524 0 2.712 1.26 2.712 2.796zM140.511 39.017h5.77l-2.837-8.238-2.933 8.238zm.75-12.793h4.726l7.886 22.239h-4.4l-2.053-5.929h-8.115l-2.085 5.929h-4.108l8.148-22.239z"/>
                            <mask id="6ckunut84p" fill="#fff">
                                <use xlink:href="#8l2c4ilwvo"/>
                            </mask>
                            <path fill="#000" d="M155.633 48.462L159.707 48.462 159.707 26.225 155.633 26.225zM162.772 48.462L166.846 48.462 166.846 26.225 162.772 26.225zM169.907 48.462h4.075V32.655h-4.075v15.807zm-.065-18.119h4.206v-4.052h-4.206v4.052zM186.725 41.931v-1.34c-.881.536-2.315.804-3.586 1.14-1.564.402-2.738.937-2.738 2.344 0 1.071.814 1.809 2.217 1.809 1.923 0 4.009-1.006 4.107-3.953m-10.397 2.345c0-3.551 2.573-4.355 6.028-5.124 2.836-.57 4.271-.703 4.369-1.575v-.167c0-.939-.816-1.808-2.903-1.808-2.086 0-3.06 1.07-3.16 2.477v.234h-4.008c.13-3.583 2.867-5.961 7.203-5.961 4.17 0 6.713 1.876 6.713 6.162v9.948h-3.878v-2.144c-.979 1.642-2.738 2.546-5.02 2.546-3.29 0-5.344-1.843-5.344-4.588M197.415 35.233c.815-1.842 2.314-2.914 4.495-2.914 3.358 0 5.345 2.312 5.345 6.665v9.479h-4.04v-9.245c0-2.21-.814-3.349-2.705-3.349-1.922 0-3.095 1.608-3.095 4.555v8.039h-4.042v-15.81h4.042v2.58zM209.247 40.524c0-4.755 3.16-8.171 7.756-8.171 3.715 0 5.93 2.009 6.973 5.057l-3.813 1.205c-.457-1.74-1.303-2.88-3.194-2.88-2.248 0-3.68 1.976-3.68 4.756v.134c0 2.78 1.301 4.755 3.55 4.755 2.184 0 3.03-1.139 3.487-3.047l3.814 1.139c-1.077 3.248-3.358 5.291-7.236 5.291-4.758 0-7.657-3.349-7.657-8.239M229.159 39.05h7.139c-.163-2.31-1.37-3.481-3.456-3.481-1.956 0-3.388 1.271-3.683 3.482m-3.91 1.608c0-4.89 3.194-8.307 7.692-8.307 4.659 0 7.43 3.182 7.43 8.172v1.407h-11.145c.26 2.278 1.693 3.55 3.876 3.55 2.282 0 3.26-1.104 3.749-2.444l3.52 1.272c-1.077 2.545-3.324 4.421-7.334 4.421-4.79 0-7.788-3.149-7.788-8.071M140.511 13.611h5.77l-2.837-8.239-2.933 8.24zm.75-12.793h4.726l7.886 22.239h-4.4l-2.053-5.929h-8.115l-2.085 5.929h-4.108L141.26.818zM167.104 15.22v-.268c0-2.848-1.368-4.656-3.747-4.656-2.215 0-3.749 1.708-3.749 4.822v.235c0 3.114 1.467 4.656 3.75 4.656 2.313 0 3.746-1.943 3.746-4.79m-11.731 0c0-5.024 2.964-8.307 6.876-8.307 1.954 0 3.584.905 4.66 2.379V.818h3.943v22.237h-3.91v-2.042c-1.077 1.474-2.74 2.378-4.727 2.378-3.844 0-6.842-3.014-6.842-8.172M181.414 18.266L184.802 7.248 188.844 7.248 183.238 23.056 179.492 23.056 173.592 7.248 177.764 7.248zM191.55 22.99h4.074V7.182h-4.074V22.99zm-.066-18.12h4.205V.818h-4.205V4.87zM198.818 20.175l3.193-1.875c.846 1.239 2.281 1.976 3.878 1.976 1.433 0 2.315-.636 2.315-1.675 0-1.104-1.697-1.305-3.944-1.809-2.672-.569-5.346-1.64-5.346-4.787 0-2.882 2.674-5.125 6.127-5.125 3.064 0 5.41 1.407 6.909 3.483l-3.194 1.74c-.846-1.305-2.15-1.974-3.68-1.974-1.435 0-2.348.636-2.348 1.574 0 1.071.88 1.24 3.551 1.774 2.77.537 5.803 1.608 5.803 4.823 0 2.98-2.674 5.224-6.29 5.224-3.16 0-5.542-1.373-6.974-3.349M226.258 15.286v-.133c0-3.015-1.434-4.823-3.779-4.823-2.379 0-3.814 1.808-3.814 4.823v.133c0 2.947 1.401 4.688 3.75 4.688 2.377 0 3.843-1.74 3.843-4.688m-11.699-.1c0-4.823 3.259-8.239 7.92-8.239 4.626 0 7.886 3.416 7.886 8.239 0 4.755-3.326 8.172-7.985 8.172-4.628 0-7.82-3.35-7.82-8.172M237.895 10.162c.423-1.809 1.564-3.082 4.4-3.082h.325v3.987h-1.597c-2.445 0-3.128 1.138-3.128 3.885v8.104h-4.041V7.248h4.041v2.914zM247.247 25.87c1.858 0 2.347-.336 3.326-2.949l-5.804-15.673h4.24l3.583 11.019 3.357-11.02h4.041l-5.866 17.282c-1.304 3.483-2.868 4.923-6.584 4.923h-1.889V25.87h1.596zM251.251 38.71c2.394-.597 3.557-1.386 3.557-3.179 0-1.292-.977-2.222-2.21-2.222-1.37 0-2.392 1.075-2.392 2.509 0 1.075.348 1.912 1.045 2.892m-.557 1.028c-2.185.574-4.394 1.65-4.394 4.326 0 2.08 1.605 3.635 3.813 3.635 1.95 0 3.625-.932 5.043-2.535l-.255-.335-2.72-3.275c-.582-.667-1.07-1.266-1.487-1.816m-5.58 4.4c0-3.109 2.512-4.566 5.022-5.188-.675-1.005-1.047-1.937-1.047-3.107 0-1.985 1.512-3.491 3.51-3.491 1.907 0 3.324 1.29 3.324 3.18 0 2.127-1.348 3.25-4.09 3.943.417.527.906 1.1 1.463 1.769.093.143 1.257 1.555 2.533 3.084 1.185-1.576 2.184-3.609 3.068-5.975h1.093c-.907 2.557-2.045 4.947-3.486 6.789 1.418 1.72 2.788 3.345 2.788 3.345H257.9l-2.092-2.534c-1.58 1.722-3.486 2.799-5.74 2.799-2.93 0-4.953-1.939-4.953-4.615" mask="url(#6ckunut84p)"/>
                        </g>
                        <g transform="translate(-120.000000, -475.000000) translate(-1.000000, 0.000000) translate(0.000000, 428.000000) translate(121.000000, 46.000000) translate(0.000000, 0.343182)">
                            <mask id="t4urulen9s" fill="#fff">
                                <use xlink:href="#cf3qlmxq9q"/>
                            </mask>
                            <path fill="url(#3xtizgkghr)" d="M11.164.793C4.998.793 0 5.798 0 11.97c0 6.173 4.998 11.178 11.164 11.178 6.165 0 11.163-5.005 11.163-11.178C22.327 5.798 17.33.793 11.164.793z" mask="url(#t4urulen9s)"/>
                        </g>
                        <g transform="translate(-120.000000, -475.000000) translate(-1.000000, 0.000000) translate(0.000000, 428.000000) translate(121.000000, 46.000000) translate(24.969325, 26.479545)">
                            <mask id="r15wxihzfv" fill="#fff">
                                <use xlink:href="#k3uo5c6a2t"/>
                            </mask>
                            <path fill="url(#f6ght11yau)" d="M.422 11.257c0 6.173 4.997 11.177 11.163 11.177s11.164-5.004 11.164-11.177S17.751.08 11.585.08C5.419.08.422 5.084.422 11.257" mask="url(#r15wxihzfv)"/>
                        </g>
                        <g transform="translate(-120.000000, -475.000000) translate(-1.000000, 0.000000) translate(0.000000, 428.000000) translate(121.000000, 46.000000) translate(49.938650, 0.343182)">
                            <mask id="c14yl4h9ly" fill="#fff">
                                <use xlink:href="#pavsokvaxw"/>
                            </mask>
                            <path fill="url(#ojppq19mjx)" d="M12.008.793C5.842.793.843 5.798.843 11.97c0 6.173 4.999 11.178 11.165 11.178 6.165 0 11.164-5.005 11.164-11.178 0-6.172-4.999-11.177-11.164-11.177z" mask="url(#c14yl4h9ly)"/>
                        </g>
                        <g transform="translate(-120.000000, -475.000000) translate(-1.000000, 0.000000) translate(0.000000, 428.000000) translate(121.000000, 46.000000) translate(76.042945, 26.479545)">
                            <mask id="ljxqzlm2zB" fill="#fff">
                                <use xlink:href="#cxz1nnq8zz"/>
                            </mask>
                            <path fill="url(#4jzp56j8fA)" d="M.13 11.257c0 6.173 4.999 11.177 11.164 11.177s11.164-5.004 11.164-11.177S17.459.08 11.294.08.131 5.084.131 11.257" mask="url(#ljxqzlm2zB)"/>
                        </g>
                        <g transform="translate(-120.000000, -475.000000) translate(-1.000000, 0.000000) translate(0.000000, 428.000000) translate(121.000000, 46.000000) translate(101.012270, 0.343182)">
                            <mask id="u0pulnc8zE" fill="#fff">
                                <use xlink:href="#e65r36kooC"/>
                            </mask>
                            <path fill="url(#v4kglbjy8D)" d="M11.716.793C5.551.793.553 5.798.553 11.97c0 6.173 4.998 11.178 11.163 11.178 6.167 0 11.163-5.005 11.163-11.178 0-6.172-4.996-11.177-11.163-11.177z" mask="url(#u0pulnc8zE)"/>
                        </g>
                    </g>
                </g>
            </g>
        </g>
    </g>
</svg>
